<?xml version="1.0" encoding="utf-8"?>
<svg id="master-artboard" viewBox="0 0 709.4554443359375 149.80340576171875" version="1.1" xmlns="http://www.w3.org/2000/svg" x="0px" y="0px" style="enable-background:new 0 0 1400 980;" width="709.4554443359375px" height="149.80340576171875px"><rect id="ee-background" x="0" y="0" width="709.4554443359375" height="149.80340576171875" style="fill: white; fill-opacity: 1; pointer-events: none;"/>

<path class="st1" d="M679.4,562.6h-9.8l-76.4-102.5c-0.6-0.8-1.6-1.4-2.7-1.4c0,0,0,0,0,0c-1.1,0-2.1,0.5-2.7,1.3l-27.1,36&#10;&#9;&#9;&#9;&#9;l-34.2-45.9c-0.6-0.8-1.6-1.4-2.7-1.4c0,0,0,0,0,0c-1.1,0-2.1,0.5-2.7,1.3l-84.4,112.3h-10.2c-1.9,0-3.4,1.5-3.4,3.4&#10;&#9;&#9;&#9;&#9;c0,1.9,1.5,3.4,3.4,3.4h252.8c1.9,0,3.4-1.5,3.4-3.4C682.8,564.1,681.3,562.6,679.4,562.6z M610.3,562.6l-42.1-56.5l9.2-2.9&#10;&#9;&#9;&#9;&#9;l11.1,15.9c0.6,0.9,1.7,1.4,2.8,1.4c0,0,0,0,0.1,0c1.1,0,2.2-0.6,2.8-1.6l10-15.8l16.5,5l40.6,54.4H610.3z M590.5,467.7&#10;&#9;&#9;&#9;&#9;l23.4,31.4l-10.2-3.1c-1.4-0.4-3,0.1-3.8,1.4l-8.7,13.7l-9.6-13.8c-0.8-1.2-2.4-1.7-3.8-1.3l-11.1,3.6L590.5,467.7z M523.9,457.9&#10;&#9;&#9;&#9;&#9;l37.3,50l-21.3-6.4c-1.4-0.4-3,0.1-3.8,1.4l-12.5,19.8l-13.9-19.9c-0.8-1.2-2.4-1.7-3.8-1.3l-19.3,6.2L523.9,457.9z M479.5,516.9&#10;&#9;&#9;&#9;&#9;l25.9-8.3l15.4,22c0.6,0.9,1.7,1.4,2.8,1.4c0,0,0,0,0.1,0c1.1,0,2.2-0.6,2.8-1.6l13.9-21.9l27.6,8.3l34,45.6H445.2L479.5,516.9z" style="fill: rgb(91, 80, 80);" transform="matrix(1, 0, 0, 1, -558.608211517334, -535.46142578125)"/><path class="st0" d="M916,555.7c0,1.6-1.3,2.9-2.9,2.9h-1.4H892l0,0l-0.1,0c-1.6,0-2.8-1.3-2.8-2.9V444c0-1.6,1.3-2.9,2.8-2.9&#10;&#9;&#9;&#9;c0,0,0.1,0,0.2,0h19.6h0h1.4c1.6,0,2.9,1.3,2.9,2.9V555.7z" style="fill: rgb(172, 211, 110);" transform="matrix(1, 0, 0, 1, -558.608211517334, -535.46142578125)"/><path class="st1" d="M910.5,431.5c-6.8-30.4-33.8-52.2-65.2-52.2c-36.9,0-66.9,30-66.9,66.9v101.4c0,36.9,30,66.9,66.9,66.9&#10;&#9;&#9;&#9;&#9;c31.4,0,58.4-21.8,65.2-52.2c4.7-0.6,8.3-4.7,8.3-9.5V441.1C918.8,436.2,915.2,432.2,910.5,431.5z M845.2,607.8&#10;&#9;&#9;&#9;&#9;c-33.2,0-60.1-27-60.1-60.1V446.2c0-33.2,27-60.1,60.1-60.1c27.7,0,51.6,18.9,58.3,45.4h-13.2c-6.3-19.4-24.6-32.7-45.2-32.7&#10;&#9;&#9;&#9;&#9;l-0.5,0c-25.9,0.3-47,21.8-47,48.1v0.4c0,1.6,1.2,3,2.8,3.3c3.3,0.6,5.6,3.4,5.6,6.7v79.4c0,3.3-2.4,6.1-5.6,6.7&#10;&#9;&#9;&#9;&#9;c-1.6,0.3-2.8,1.7-2.8,3.3v1c0,12.7,4.9,24.6,13.9,33.6c9,9,20.9,13.9,33.6,13.9l0.5,0c20.2-0.2,38.1-13.5,44.6-32.7h13.3&#10;&#9;&#9;&#9;&#9;C896.9,588.9,873,607.8,845.2,607.8z M883.5,561.3c-5.8,16-20.9,27-37.9,27.2l-0.4,0c-10.9,0-21.1-4.2-28.8-12&#10;&#9;&#9;&#9;&#9;c-7.3-7.3-11.6-17-11.9-27.3c5-2.1,8.4-7,8.4-12.5v-79.4c0-5.6-3.4-10.5-8.3-12.5c1.1-21.6,18.8-39,40.3-39.3l0.4,0&#10;&#9;&#9;&#9;&#9;c17.3,0,32.7,11,38.4,27.1c-3.1,1.6-5.2,4.8-5.2,8.6v111.7C878.5,556.4,880.5,559.6,883.5,561.3z M912.1,552.8&#10;&#9;&#9;&#9;&#9;c0,1.6-1.3,2.9-2.9,2.9h-1.4h-19.6l0,0l-0.1,0c-1.6,0-2.8-1.3-2.8-2.9V441.1c0-1.6,1.3-2.9,2.8-2.9c0,0,0.1,0,0.2,0h19.6h0h1.4&#10;&#9;&#9;&#9;&#9;c1.6,0,2.9,1.3,2.9,2.9V552.8z" style="fill: rgb(91, 80, 80);" transform="matrix(1, 0, 0, 1, -558.608211517334, -535.46142578125)"/><path d="M 904.399976 533.700012 A 5.8 5.8 0 0 1 898.599976 539.500012 A 5.8 5.8 0 0 1 892.799975 533.700012 A 5.8 5.8 0 0 1 898.599976 527.900012 A 5.8 5.8 0 0 1 904.399976 533.700012 Z" class="st1" style="fill: rgb(91, 80, 80);" transform="matrix(1, 0, 0, 1, -558.608211517334, -535.46142578125)"/><path class="st1" d="M798.6,521.6c0-1.9-1.5-3.4-3.4-3.4c0,0,0,0,0,0c-1.9,0-3.4,1.5-3.4,3.4c0,4,0,8.1,0,12.1&#10;&#9;&#9;&#9;&#9;c0,1.9,1.5,3.4,3.4,3.4c0,0,0,0,0,0c1.9,0,3.4-1.5,3.4-3.4C798.6,529.7,798.6,525.7,798.6,521.6z" style="fill: rgb(91, 80, 80);" transform="matrix(1, 0, 0, 1, -558.608211517334, -535.46142578125)"/><path class="st0" d="M1163,603.2h1.1V467.5h-35.4v135.7c8,0,16,0,23.9,0c1.9,0,3.4,1.5,3.3,3.4c0,1.9-1.5,3.3-3.4,3.3c0,0,0,0,0,0&#10;&#9;&#9;&#9;c-8,0-16,0-23.9,0v5.2c0,1.1,0.9,2,2,2h31.4c1.1,0,2-0.9,2-2v-5.2h-1.1c-1.9,0-3.4-1.5-3.4-3.4&#10;&#9;&#9;&#9;C1159.6,604.7,1161.1,603.2,1163,603.2z M1156.1,515.5c0,3.7-3,6.7-6.7,6.7h-6.1c-3.7,0-6.7-3-6.7-6.7v-22.5c0-3.7,3-6.7,6.7-6.7&#10;&#9;&#9;&#9;h6.1c3.7,0,6.7,3,6.7,6.7V515.5z" style="fill: rgb(172, 211, 110);" transform="matrix(1, 0, 0, 1, -558.608211517334, -535.46142578125)"/><path class="st1" d="M1178.8,371.7h-72.6c-3.2,0-5.7,2.6-5.7,5.7v17.2c0,2.8,2.6,4.3,5,5V418c0,2.6,0.1,5.3,0.4,7.9l0.4,3.7&#10;&#9;&#9;&#9;&#9;c1.6,11.6,5.6,22.7,11.8,32.7v150c0,4.8,3.9,8.8,8.8,8.8h31.4c4.8,0,8.8-3.9,8.8-8.8v-150c6.2-10,10.2-21.1,11.8-32.7l0.4-3.7&#10;&#9;&#9;&#9;&#9;c0.2-2.6,0.4-5.2,0.4-7.9v-17.8c2.8-0.4,5-2.8,5-5.7v-17.2C1184.5,374.2,1181.9,371.7,1178.8,371.7z M1177.8,378.4v4.8&#10;&#9;&#9;&#9;&#9;c-5.9-0.1-12-0.1-17.7,0.1c-1.9,0.1-3.3,1.6-3.2,3.5c0.1,1.9,1.6,3.3,3.5,3.2c5.7-0.2,11.6-0.2,17.5-0.1v3.6h-1.6h-67.1&#10;&#9;&#9;&#9;&#9;c-0.4,0-1.2-0.2-1.9-0.5V390c14.9-0.2,29.6-0.2,44.6,0c0,0,0,0,0.1,0c1.8,0,3.3-1.5,3.4-3.3c0-1.9-1.5-3.4-3.3-3.4&#10;&#9;&#9;&#9;&#9;c-15-0.2-29.7-0.2-44.7,0v-4.9H1177.8z M1112.2,418v-17.7h60.6V418c0,2-0.1,4-0.2,6h-60.1C1112.3,422,1112.2,420,1112.2,418z&#10;&#9;&#9;&#9;&#9; M1113.3,430.7h58.5c-1.6,9.6-5,18.8-10,27.1h-38.4C1118.2,449.5,1114.9,440.3,1113.3,430.7z M1158.2,614.2h-31.4&#10;&#9;&#9;&#9;&#9;c-1.1,0-2-0.9-2-2V607c7.9,0,16,0,23.9,0c0,0,0,0,0,0c1.9,0,3.4-1.5,3.4-3.3c0-1.9-1.5-3.4-3.3-3.4c-8,0-16,0-23.9,0V464.6h35.4&#10;&#9;&#9;&#9;&#9;v135.7h-1.1c-1.9,0-3.4,1.5-3.4,3.4c0,1.9,1.5,3.4,3.4,3.4h1.1v5.2C1160.2,613.3,1159.3,614.2,1158.2,614.2z" style="fill: rgb(91, 80, 80);" transform="matrix(1, 0, 0, 1, -558.608211517334, -535.46142578125)"/>
<g transform="matrix(4.007402420043945, 0, 0, 4.007402420043945, -31.11201286315918, -303.222412109375)"><g fill-rule="evenodd" clip-rule="evenodd"><path fill="#fff" d="M0 0h192.756v192.756H0V0z"/><path d="M29.021 106.586c-11.331 0-20.517-4.57-20.517-10.208 0-5.637 9.186-10.207 20.517-10.207s20.517 4.57 20.517 10.207c0 5.638-9.186 10.208-20.517 10.208z"/><path d="M29.021 105.74c10.82 0 19.592-4.191 19.592-9.362 0-5.17-8.771-9.362-19.592-9.362S9.429 91.208 9.429 96.378c0 5.171 8.772 9.362 19.592 9.362z" fill="#fff"/><path d="M29.021 105.371c-10.617 0-19.225-4.027-19.225-8.993s8.607-8.993 19.225-8.993 19.225 4.026 19.225 8.993c0 4.966-8.608 8.993-19.225 8.993z"/><path d="M25.989 95.424h1.313l.912-2.278.411 2.278h1.424l1.901-5.227h-1.458l-.825 2.336-.444-2.336-1.578.009a.69.69 0 0 1 0 .517l-1.656 4.701zM32.735 90.715l-1.622 4.716 2.399-.009a2.359 2.359 0 0 0 1.554-.517 3.328 3.328 0 0 0 1.144-1.424 3.92 3.92 0 0 0 .309-1.82 1.644 1.644 0 0 0-.714-1.125 2.809 2.809 0 0 0-1.337-.338H32.72a.861.861 0 0 1 .015.517z" fill="#fff"/><path d="M34.465 91.522c.642 0 .381 1.058.164 1.579a2.644 2.644 0 0 1-.463.729c-.111.13-.251.231-.41.294a.64.64 0 0 1-.251.048h-.353l.932-2.65h.381z"/><path d="M37.406 101.68h1.55l.661-1.873.971 1.873h1.544l-1.033-1.979c.324-.059.627-.193.893-.391.285-.188.502-.463.623-.781a1.627 1.627 0 0 0-.01-1.387 1 1 0 0 0-.493-.463 1.982 1.982 0 0 0-.951-.232h-2.085a.647.647 0 0 1 0 .521l-1.67 4.712z" fill="#fff"/><path d="M40.705 97.68c.897.014.357.879-.227.879h-.401l.295-.883.333.004z"/><path d="M18.879 101.68h1.549l.662-1.873.97 1.873h1.544l-1.028-1.979c.319-.059.627-.193.888-.391.285-.188.502-.463.623-.781a1.627 1.627 0 0 0-.01-1.387 1.01 1.01 0 0 0-.488-.463 2.013 2.013 0 0 0-.956-.232h-2.085a.647.647 0 0 1 0 .521l-1.669 4.712z" fill="#fff"/><path d="M22.181 97.68c.845.014.406.879-.227.879h-.401l.294-.883.334.004z"/><path d="M29.897 101.672h1.139l3.847-5.218h-1.694l-1.882 2.819-.015-2.819-1.607-.005c.082.164.121.344.111.521l.101 4.702zM33.447 101.68h3.292l.43-1.133h-1.723c.082-.305.179-.609.289-.904h1.289l.425-1.143h-1.308l.309-.908h1.685l.391-1.135H35.03c.068.213.068.439.005.652l-1.588 4.571zM23.721 90.727l-3.041 4.697h1.491l.488-.68h1.453l.097.68h1.453l-.28-5.222-1.593-.005a.708.708 0 0 1-.068.53z" fill="#fff"/><path d="M24.125 93.557h-.729l.627-1.086.102 1.086z"/><path d="M25.973 101.703c.497.072 1.009 0 1.463-.213a3.399 3.399 0 0 0 1.221-1 2.94 2.94 0 0 0 .57-2.586 1.966 1.966 0 0 0-.792-1.193 2.154 2.154 0 0 0-1.801-.241 3.437 3.437 0 0 0-2.114 2.216 2.658 2.658 0 0 0-.048 1.574 1.97 1.97 0 0 0 1.501 1.443z" fill="#fff"/><path d="M27.058 100.221c-.28.299-.831.338-.985-.098a1.725 1.725 0 0 1-.083-.84c.068-.492.271-.959.589-1.352.333-.41 1.019-.266 1.101.275.112.73-.12 1.474-.622 2.015z"/><path fill="#fff" d="M37.466 93.466h1.709l-1.993.835-.145.429 3.755-1.264.488-1.274h-3.355l-.459 1.274zM18.537 98.275h-1.709l1.993-.83.145-.429-3.756 1.259-.487 1.28h3.355l.459-1.28zM17.135 95.428H20.2l.512-1.207h-1.559l1.366-4.021h-1.786a.873.873 0 0 1 0 .521l-1.598 4.707z"/><path d="M53.829 88.787h5.719c4.32 0 7.879 3.395 7.879 7.756s-3.58 7.756-7.879 7.756h-5.719V88.787z"/><path d="M57.861 100.885h.905c2.407 0 4.464-1.318 4.464-4.342 0-2.777-1.831-4.341-4.423-4.341h-.946v8.683z" fill="#fff"/><path d="M74.568 104.299h-4.032V88.787h4.032v15.512zM86.954 92.778c-.741-.617-1.688-1.028-2.675-1.028-.741 0-1.728.432-1.728 1.296 0 .905 1.09 1.255 1.79 1.481l1.028.309c2.16.638 3.827 1.728 3.827 4.239 0 1.543-.37 3.127-1.604 4.176-1.214 1.029-2.839 1.461-4.403 1.461-1.955 0-3.868-.658-5.452-1.77l1.728-3.25c1.008.883 2.202 1.604 3.58 1.604.946 0 1.955-.473 1.955-1.562 0-1.133-1.584-1.523-2.448-1.77-2.53-.721-4.197-1.379-4.197-4.382 0-3.147 2.242-5.205 5.349-5.205 1.563 0 3.477.494 4.855 1.275l-1.605 3.126zM103.434 93.992c-.822-1.111-2.16-1.707-3.539-1.707-2.469 0-4.134 1.893-4.134 4.299 0 2.449 1.687 4.217 4.197 4.217 1.316 0 2.633-.637 3.477-1.645v4.834c-1.338.412-2.305.721-3.559.721-2.16 0-4.218-.824-5.823-2.283-1.708-1.543-2.489-3.561-2.489-5.864 0-2.119.803-4.156 2.284-5.678 1.522-1.563 3.723-2.51 5.905-2.51 1.295 0 2.488.288 3.682.782v4.834h-.001zM123.533 96.255c0 5.021-3.6 8.558-8.578 8.558s-8.578-3.537-8.578-8.558c0-4.69 4.113-7.982 8.578-7.982s8.578 3.291 8.578 7.982z"/><path d="M110.572 96.275c0 2.674 1.977 4.629 4.383 4.629s4.383-1.955 4.383-4.629c0-2.14-1.977-4.094-4.383-4.094s-4.383 1.955-4.383 4.094z" fill="#fff"/><path d="M133.145 98.209l3.763-9.422h4.383l-6.625 15.512h-3.127l-6.521-15.512h4.382l3.745 9.422zM147.568 92.202v2.592h4.547v3.415h-4.547v2.676h4.793v3.414h-8.826V88.787h8.826v3.415h-4.793zM168.982 104.299h-5.02l-3.807-5.967h-.041v5.967h-4.033V88.787h6.029c3.064 0 5.389 1.461 5.389 4.773 0 2.14-1.193 3.991-3.395 4.381l4.878 6.358z"/><path d="M160.115 95.741h.391c1.316 0 2.799-.247 2.799-1.934s-1.482-1.934-2.799-1.934h-.391v3.868z" fill="#fff"/><path d="M168.781 88.787h4.834l2.903 4.217 2.9-4.217h4.834l-5.719 8.065v7.447H174.5v-7.447l-5.719-8.065z"/></g></g></svg>